<svg class=" " viewBox="0 0 1600 800"><path d="M1030.664,509.091C1032.639,513.698,1044.496,516.131,1053.266,517.467C1064.601,519.193,1080.995,518.301,1093.467,515.35C1105.231,512.568,1124.728,506.682,1126.283,501.01C1127.285,497.353,1121.936,491.878,1117.588,488.927C1111.969,485.114,1103.22,483.136,1093.467,482.883C1078.656,482.499,1046.374,486.501,1037.186,493.919C1032.256,497.9,1029.03,505.277,1030.664,509.091" stroke="#000000" stroke-width="3" fill="none" stroke-linecap="round" stroke-miterlimit="4"></path><path d="M859.379,533.333C862.993,542.34,873.787,551.087,884.36,557.576C897.166,565.435,915.169,570.382,932.663,574.147C952.341,578.381,973.366,579.904,996.985,580.175C1025.885,580.505,1059.121,577.644,1093.467,573.355C1133.394,568.37,1188.243,558.373,1222.111,550.23C1244.729,544.792,1262.513,541.235,1277.906,533.333C1290.628,526.803,1307.542,518.077,1309.503,509.091C1311.13,501.634,1304.298,492.412,1296.673,484.848C1284.475,472.75,1257.219,461.676,1234.376,452.525C1208.776,442.27,1177.836,433.526,1149.749,427.878C1122.836,422.466,1094.666,418.962,1069.347,418.715C1046.723,418.495,1025.925,420.462,1005.025,424.777C984.251,429.066,963.667,435.807,944.305,444.444C924.859,453.119,903.353,464.75,888.626,476.768C876.65,486.54,864.617,497.826,860.302,508.55C857.008,516.735,856.329,525.731,859.379,533.333" stroke="#000000" stroke-width="3" fill="none" stroke-linecap="round" stroke-miterlimit="4"></path><path d="M759.978,525.253C760.683,532.881,763.793,541.676,769.937,549.495C778.836,560.819,796.817,572.878,814.409,581.818C835.499,592.536,863.608,600.665,889.614,606.061C916.372,611.612,942.538,613.925,972.864,614.185C1009.338,614.498,1043.02,610.512,1093.467,604.502C1179.478,594.255,1371.957,563.78,1440.849,549.495C1470.431,543.361,1490.552,541.162,1503.652,533.333C1511.281,528.774,1519.434,522.547,1518.568,517.172C1517.262,509.065,1496,502.134,1474.819,492.929C1426.37,471.874,1292.131,431.056,1225.905,412.121C1182.659,399.756,1151.198,391.194,1117.588,385.262C1088.979,380.212,1063.28,376.664,1037.186,376.678C1012.429,376.691,988.88,378.881,964.824,384.48C939.504,390.372,914.265,400.191,889.08,412.121C861.726,425.079,829.262,442.952,807.242,460.606C789.261,475.022,770.444,494.108,763.819,506.839C760.211,513.771,759.382,518.79,759.978,525.253" stroke="#000000" stroke-width="3" fill="none" stroke-linecap="round" stroke-miterlimit="4"></path><path d="M34.109,796C34.109,796,76.223,756.595,88.023,735.354C98.083,717.244,107.53,694.531,104.744,678.788C102.424,665.682,92.638,654.273,80.402,645.941C63.837,634.662,8.04,626.493,8.04,626.493" stroke="#000000" stroke-width="3" fill="none" stroke-linecap="round" stroke-miterlimit="4"></path><path d="M402.01,4.084C402.01,4.084,465.429,20.709,498.492,35.94C537.441,53.883,587.031,96.807,619.095,108.971C638.006,116.145,652.011,118.022,667.337,117.786C681.37,117.569,695.782,114.355,707.538,109.15C718.347,104.364,728.146,97.459,735.793,88.889C743.682,80.048,749.053,69.039,753.803,56.566C759.534,41.517,765.524,4,765.524,4" stroke="#000000" stroke-width="3" fill="none" stroke-linecap="round" stroke-miterlimit="4"></path><path d="M1596,589.75C1596,589.75,1450.424,589.298,1366.834,595.734C1264.967,603.577,1109.736,632.991,1029.146,639.048C984.486,642.405,958.65,643.888,924.623,641.397C891.701,638.986,859.496,633.535,828.141,624.968C796.713,616.383,762.461,603.937,736.286,589.899C714.271,578.092,690.823,564.036,679.67,549.495C671.815,539.253,667.499,527.156,667.593,517.172C667.675,508.494,672.334,500.577,677.176,492.929C682.642,484.297,689.002,478.072,699.872,468.687C720.27,451.075,763.298,421.9,795.98,402.069C827.539,382.92,861.056,363.222,892.462,351.264C919.836,340.841,943.616,333.441,972.864,331.337C1007.043,328.879,1038.305,333.887,1085.427,342.556C1168.297,357.8,1328.579,417.519,1423.116,434.022C1489.681,445.641,1596,448.077,1596,448.077" stroke="#000000" stroke-width="3" fill="none" stroke-linecap="round" stroke-miterlimit="4"></path><path d="M4,9.767C4,9.767,187.266,7.773,257.286,14.969C307.61,20.141,353.894,28.291,385.93,38.949C406.468,45.782,420.614,53.573,434.171,62.733C445.746,70.554,453.232,75.623,463.377,88.889C482.246,113.562,502.144,189.212,524.234,210.101C536.534,221.733,547.574,223.112,562.814,226.843C582.83,231.744,606.307,232.062,635.176,231.975C678.221,231.845,763.962,225.853,795.98,219.595C810.063,216.843,817.342,214.741,825.702,210.101C833.08,206.007,839.214,200.826,844.221,194.373C849.543,187.515,853.408,179.199,856.238,169.697C859.685,158.123,861.858,146.422,861.348,129.293C860.448,98.988,837.87,4,837.87,4" stroke="#000000" stroke-width="3" fill="none" stroke-linecap="round" stroke-miterlimit="4"></path><path d="M133.999,796C133.999,796,183.887,706.116,194.193,678.788C199.376,665.043,202.097,656.491,202.337,646.465C202.544,637.829,201.417,628.946,197.45,622.222C193.462,615.464,186.176,610.273,178.402,606.061C169.181,601.065,159.939,598.629,144.724,596.034C114.698,590.912,8.04,589.39,8.04,589.39" stroke="#000000" stroke-width="3" fill="none" stroke-linecap="round" stroke-miterlimit="4"></path><path d="M1596,624.13C1596,624.13,1432.995,617.449,1342.714,623.203C1238.021,629.875,1087.557,662.249,1005.025,667.68C957.58,670.801,928.369,671.284,892.462,667.731C858.89,664.409,829.42,657.686,795.98,648.402C758.202,637.914,714.786,621.866,677.746,606.061C643.301,591.362,600.178,570.364,580.563,557.576C571.095,551.403,566.177,548.023,561.09,541.414C555.864,534.623,550.255,525.333,549.86,517.172C549.473,509.169,553.2,500.979,558.358,492.929C565.297,482.098,576.09,473.469,591.804,460.606C621.92,435.954,688.924,396.524,732.456,363.636C772.556,333.341,815.217,288.644,844.221,271.314C860.092,261.83,867.286,257.045,884.422,254.94C912.157,251.535,953.045,260.2,996.985,271.079C1062.929,287.406,1168.778,335.293,1238.191,357.225C1289.835,373.543,1331.223,386.178,1374.874,394.914C1413.923,402.73,1450.198,407.91,1487.437,409.172C1523.895,410.408,1596,402.846,1596,402.846" stroke="#000000" stroke-width="3" fill="none" stroke-linecap="round" stroke-miterlimit="4"></path><path d="M4,29.728C4,29.728,191.932,33.799,249.246,41.584C280.749,45.864,300.39,49.999,321.608,57.896C339.829,64.678,357.579,73.265,369.849,83.684C379.953,92.264,387.959,101.82,392.409,113.131C397.065,124.963,399.624,137.533,396.302,153.535C390.589,181.056,347.104,231.082,338.173,258.586C332.973,274.601,330.589,286.416,333.196,298.99C335.8,311.547,342.917,322.798,353.769,333.986C369.562,350.268,411.746,365.407,426.526,379.798C435.131,388.177,442.4,395.864,442.709,404.04C443.011,412.03,435.59,420.173,429.05,428.283C420.404,439.006,408.483,449.52,392.694,460.606C369.132,477.151,331.482,499.395,297.487,512.323C262.376,525.675,227.108,531.196,184.925,538.582C131.965,547.854,4,559.934,4,559.934" stroke="#000000" stroke-width="3" fill="none" stroke-linecap="round" stroke-miterlimit="4"></path><path d="M217.173,796C217.173,796,231.749,749.759,244.086,727.273C257.755,702.361,277.817,673.955,297.487,654.095C314.799,636.616,333.393,622.288,353.769,612.19C373.669,602.327,393.403,596.333,418.09,593.677C450.14,590.228,485.523,592.828,530.653,601.101C602.494,614.27,733.963,668.281,804.02,684.687C846.667,694.675,875.059,700.031,908.543,701.913C939.158,703.634,958.611,701.374,996.985,697.396C1069.633,689.865,1225.783,655.935,1310.553,648.222C1367.804,643.012,1407.386,643.801,1455.276,644.468C1502.526,645.127,1596,652.047,1596,652.047" stroke="#000000" stroke-width="3" fill="none" stroke-linecap="round" stroke-miterlimit="4"></path><path d="M1596,357.845C1596,357.845,1541.386,373.663,1511.558,376.365C1478.75,379.338,1442.297,377.321,1407.035,372.687C1369.979,367.817,1332.054,358.577,1294.472,346.785C1254.872,334.359,1214.102,317.6,1175.469,298.99C1136.415,280.178,1092.393,255.724,1061.478,234.343C1037.969,218.085,1020.766,205.044,1003.238,185.859C984.311,165.142,969.417,140.408,953.051,113.131C933.755,80.972,896.678,4,896.678,4" stroke="#000000" stroke-width="3" fill="none" stroke-linecap="round" stroke-miterlimit="4"></path><path d="M4,51.143C4,51.143,102.222,52.8,144.724,57.092C180.308,60.685,214.993,64.548,242.211,72.727C263.219,79.04,284.02,88.424,295.803,96.97C302.992,102.184,307.016,106.706,310.577,113.131C314.396,120.019,317.411,128.725,317.333,137.374C317.243,147.387,313.56,157.294,307.694,169.697C298.233,189.702,270.158,221.234,258.605,242.424C250.429,257.421,244.516,268.426,241.306,282.828C237.933,297.959,237.742,313.668,239.654,331.313C242.032,353.261,259.181,383.459,258.219,404.04C257.492,419.601,251.845,433.162,243.775,444.444C235.567,455.92,222.594,463.746,209.045,472.089C193.038,481.946,176.515,489.879,152.764,498.008C115.476,510.771,4,532.521,4,532.521" stroke="#000000" stroke-width="3" fill="none" stroke-linecap="round" stroke-miterlimit="4"></path><path d="M302.14,796C302.14,796,304.93,759.817,312.208,743.434C319.963,725.979,334.01,708.454,348.831,694.949C363.867,681.25,382.743,670.055,402.01,662.055C421.821,653.829,444.742,649.239,466.332,646.78C487.627,644.354,508.122,645.002,530.653,647.186C556.066,649.65,577.764,653.186,611.055,662.397C669.068,678.447,795.244,735.009,844.221,748.268C865.97,754.156,875.741,756.586,892.462,756.842C910.479,757.117,924.236,753.67,948.744,748.602C996.553,738.715,1098.532,705.211,1157.789,692.436C1200.803,683.163,1229.358,678.284,1270.352,674.019C1319.051,668.953,1377.239,666.164,1431.156,666.757C1485.78,667.358,1596,677.841,1596,677.841" stroke="#000000" stroke-width="3" fill="none" stroke-linecap="round" stroke-miterlimit="4"></path><path d="M1596,300.806C1596,300.806,1558.512,326.814,1535.678,334.352C1509.721,342.922,1477.934,346.125,1447.236,345.936C1413.836,345.731,1377.069,339.816,1342.714,330.936C1307.359,321.798,1270.13,306.771,1238.191,291.197C1208.872,276.901,1182.742,260.285,1157.571,242.424C1133.129,225.081,1111.47,208.165,1089.06,185.859C1063.158,160.075,1036.455,125.586,1013.065,94.675C990.557,64.929,950.935,4,950.935,4" stroke="#000000" stroke-width="3" fill="none" stroke-linecap="round" stroke-miterlimit="4"></path><path d="M1590.34,4L1596,10.587" stroke="#000000" stroke-width="3" fill="none" stroke-linecap="round" stroke-miterlimit="4"></path><path d="M4,75.869C4,75.869,73.013,77.237,104.523,81.126C132.95,84.635,163.223,88.927,184.925,96.87C201.189,102.824,216.536,109.781,225.126,119.272C231.889,126.745,236.583,133.34,236.467,145.455C236.199,173.322,184.428,238.239,173.808,282.828C164.612,321.44,174.136,369.925,169.315,395.96C166.668,410.253,165.712,417.756,158.369,428.283C147.912,443.274,126.566,459.782,104.523,471.753C77.273,486.552,4,504.602,4,504.602" stroke="#000000" stroke-width="3" fill="none" stroke-linecap="round" stroke-miterlimit="4"></path><path d="M412.974,796C412.974,796,403.573,770.965,405.73,759.596C407.925,748.028,417.026,735.993,426.512,727.273C436.785,717.829,451.44,710.976,466.332,706.167C483.052,700.766,502.686,698.246,522.613,698.382C545.231,698.537,572.522,702.852,594.975,709.4C615.996,715.531,639.255,723.976,653.651,735.354C665.102,744.403,677.242,756.957,678.206,767.677C679.059,777.161,663.808,796,663.808,796" stroke="#000000" stroke-width="3" fill="none" stroke-linecap="round" stroke-miterlimit="4"></path><path d="M1036.551,796C1036.551,796,1047.769,775.98,1056.662,767.677C1066.945,758.074,1078.304,751.397,1096.294,743.434C1128.386,729.231,1187.776,711.102,1238.191,701.953C1293.414,691.931,1355.791,688.478,1415.075,688.723C1475.053,688.972,1596,703.763,1596,703.763" stroke="#000000" stroke-width="3" fill="none" stroke-linecap="round" stroke-miterlimit="4"></path><path d="M1596,211.077C1596,211.077,1572.655,251.638,1556.017,266.667C1539.214,281.844,1517.939,294.27,1495.477,301.486C1471.317,309.249,1442.388,311.1,1415.075,309.535C1386.168,307.879,1354.845,300.102,1326.633,290.293C1298.578,280.539,1271.11,266.056,1246.231,250.96C1222.358,236.474,1201.629,220.828,1179.919,202.02C1155.983,181.283,1134.734,158.491,1109.548,130.71C1077.24,95.074,1004.091,4,1004.091,4" stroke="#000000" stroke-width="3" fill="none" stroke-linecap="round" stroke-miterlimit="4"></path><path d="M1545.662,4L1596,76.877" stroke="#000000" stroke-width="3" fill="none" stroke-linecap="round" stroke-miterlimit="4"></path><path d="M4,108.42C4,108.42,88.452,115.625,112.563,125.192C126.321,130.651,136.185,137.122,142.04,145.455C146.941,152.429,148.77,158.855,148.396,169.697C147.609,192.5,120.772,239.3,112.957,274.747C105.327,309.354,106.697,354.99,101.498,379.798C98.554,393.846,97.142,401.937,91.338,412.121C84.767,423.652,74.806,435.033,62.329,444.444C47.079,455.947,4,472.843,4,472.843" stroke="#000000" stroke-width="3" fill="none" stroke-linecap="round" stroke-miterlimit="4"></path><path d="M1497.947,4C1497.947,4,1535.934,71.824,1543.129,96.97C1547.64,112.735,1547.936,123.946,1547.387,137.374C1546.834,150.882,1544.31,164.901,1539.752,177.778C1535.116,190.874,1528.067,204.355,1519.598,215.233C1511.358,225.818,1500.823,235.303,1489.904,242.424C1479.321,249.327,1467.511,254.287,1455.276,257.657C1442.617,261.144,1430.383,263.156,1415.075,262.633C1394.426,261.927,1366.8,257.26,1342.714,248.603C1315.871,238.955,1286.791,221.794,1262.312,204.83C1238.714,188.477,1222.851,172.811,1197.99,149.156C1159.79,112.807,1059.165,4,1059.165,4" stroke="#000000" stroke-width="3" fill="none" stroke-linecap="round" stroke-miterlimit="4"></path><path d="M1116.992,796C1116.992,796,1132.274,776.606,1141.709,769.032C1151.215,761.399,1159.184,756.473,1173.869,750.446C1200.768,739.407,1251.01,725.488,1294.472,719.022C1343.862,711.675,1403.575,709.918,1455.276,712.511C1503.863,714.948,1596,732.443,1596,732.443" stroke="#000000" stroke-width="3" fill="none" stroke-linecap="round" stroke-miterlimit="4"></path><path d="M4,167.95C4,167.95,28.002,176.775,35.027,185.859C42.625,195.683,44.405,208.423,46.175,226.263C49.476,259.538,42.742,340.979,35.768,371.717C32.365,386.719,28.746,394.824,23.054,404.04C17.897,412.392,4,425.258,4,425.258" stroke="#000000" stroke-width="3" fill="none" stroke-linecap="round" stroke-miterlimit="4"></path><path d="M1442.06,4C1442.06,4,1461.88,57.925,1464.775,80.808C1467.028,98.617,1467.459,114.389,1463.038,129.293C1458.68,143.983,1450.429,160.17,1438.769,169.697C1426.673,179.581,1407.092,185.442,1390.955,186.625C1375.067,187.79,1358.379,182.772,1342.714,177.152C1326.171,171.219,1314.595,164.871,1294.472,151.117C1253.503,123.115,1121.297,4,1121.297,4" stroke="#000000" stroke-width="3" fill="none" stroke-linecap="round" stroke-miterlimit="4"></path><path d="M1192.592,796C1192.592,796,1207.501,781.812,1217.516,775.758C1229.856,768.298,1243.585,761.991,1262.312,756.536C1290.955,748.192,1335.978,740.539,1374.874,738.185C1416.202,735.685,1464.537,736.913,1503.518,743.43C1537.27,749.073,1596,771.085,1596,771.085" stroke="#000000" stroke-width="3" fill="none" stroke-linecap="round" stroke-miterlimit="4"></path><path d="M1357.731,4C1357.731,4,1350.414,26.136,1342.714,32.845C1334.823,39.72,1322.458,43.701,1310.553,44.318C1296.196,45.063,1278.258,38.781,1262.312,32.561C1244.92,25.778,1210.615,4,1210.615,4" stroke="#000000" stroke-width="3" fill="none" stroke-linecap="round" stroke-miterlimit="4"></path><path d="M1289.917,796C1289.917,796,1329.132,780.027,1349.793,775.758C1370.826,771.411,1393.404,770.239,1415.075,770.42C1436.604,770.6,1459.629,772.059,1479.397,776.765C1497.349,781.039,1529.114,796,1529.114,796" stroke="#000000" stroke-width="3" fill="none" stroke-linecap="round" stroke-miterlimit="4"></path></svg>